<?xml version="1.0" encoding="UTF-8" standalone="no"?>
<svg id="svg4756" xmlns:rdf="http://www.w3.org/1999/02/22-rdf-syntax-ns#" xmlns="http://www.w3.org/2000/svg" height="42.33mm" width="42.33mm" version="1.1" xmlns:cc="http://creativecommons.org/ns#" xmlns:dc="http://purl.org/dc/elements/1.1/" viewBox="0 0 150 149.99999">
	<g id="layer1" transform="translate(-267.1 -40.86)">
		<path id="path10332" d="m342.1 40.86a75 75 0 0 0 -75 75 75 75 0 0 0 75 75 75 75 0 0 0 75 -75 75 75 0 0 0 -75 -75zm0.3691 15 0.0137 0.0059c3.18 3.564 6.072 7.382 9.094 11.08 3.847 4.757 7.6 9.612 11.54 14.29-3.424 0.1874-6.886 0.1452-10.32 0.2207-0.0314 8.358-0.062 16.72-0.0937 25.07-3.382 2.734-6.517 5.773-9.455 8.977-0.3326 0.2115-0.6785 1.249-1.143 0.8379-3.238-3.5-6.625-6.878-10.33-9.895v-25.07c-3.13-0.0168-6.262 0.04157-9.391-0.04883-0.4025 0.0293-1.123-0.03409-0.5508-0.5195 5.523-6.821 11.14-13.57 16.71-20.34 1.335-1.499 2.472-3.21 3.896-4.605l0.0215-0.0039zm-27.53 38.78c0.1383 0.02442 0.0768 0.2595 0.043 0.3633-0.9982 2.473-1.965 4.974-3.08 7.393 0.0974 0.6612-1.031 1.444-0.3164 1.936 5.191 2.74 10.25 5.752 14.83 9.449 3.604 2.98 6.952 6.287 9.943 9.883 0.6737 0.4022-0.1057 1.109-0.3027 1.566-4.079 6.685-6.983 14.07-9.02 21.62-0.223 0.2557-0.1132 1.291-0.4336 1.27-1.941-4-3.949-8.036-6.807-11.48-2.93-3.767-6.627-6.858-10.54-9.549-1.923-1.165-3.791-2.528-5.908-3.301-1.344 2.748-2.344 5.709-3.596 8.521-0.0998 0.5557-0.5231 0.8032-0.7109 0.1406-4.955-8.948-9.775-17.97-14.66-26.96-0.2007-0.4221-1.025-1.423-0.125-1.561 10.22-3.058 20.41-6.199 30.62-9.291 0.0286-0.006 0.0525-0.0069 0.0723-0.0039zm54.79 0.03711 0.0508 0.0039c10.05 3.169 20.08 6.392 30.14 9.545 0.78-0.0233 0.3406 0.8002 0.1406 1.184-4.186 7.797-8.38 15.59-12.56 23.4-0.8394 1.342-1.343 2.956-2.41 4.119-1.159-2.325-2.015-4.894-3.07-7.305-0.3567-0.5578-0.3888-1.494-0.9688-1.832-1.813 0.7326-3.423 1.899-5.109 2.873-2.452 1.596-4.805 3.389-6.938 5.398-4.372 4.05-7.896 8.988-10.25 14.46-4.025 9.195-5.284 19.31-5.768 29.25h-19.92c-1.3 0.3886-0.9887-0.6564-0.875-1.551 0.4727-7.922 1.318-15.85 3.221-23.57 2.705-11.04 7.64-21.75 15.47-30.1 5.188-5.575 11.27-10.28 17.94-13.96 1.418-0.8942 3.09-1.495 4.381-2.523-0.9927-2.706-2.214-5.341-3.248-8.039-0.0163-0.3798-0.7237-1.097-0.2656-1.357l0.0449-0.002z" fill="#428bca"/>
	</g>
</svg>
