<!-- Generator: Adobe Illustrator 21.1.0, SVG Export Plug-In  -->
<svg version="1.1"
	 xmlns="http://www.w3.org/2000/svg" xmlns:xlink="http://www.w3.org/1999/xlink" xmlns:a="http://ns.adobe.com/AdobeSVGViewerExtensions/3.0/"
	 x="0px" y="0px" width="512px" height="512px" viewBox="0 0 512 512" style="enable-background:new 0 0 512 512;"
	 xml:space="preserve">
<style type="text/css">
	.st0{fill:#89B8E3;}
	.st1{fill:#F4F7FA;}
	.st2{fill:#DADBDD;}
	.st3{fill:#F3DFBB;}
	.st4{fill:#F4EBCD;}
	.st5{fill:#433F3A;}
	.st6{fill:#DA9886;}
	.st7{fill:#3A4B5C;}
	.st8{fill:#303D4B;}
	.st9{fill:#D5896C;}
	.st10{fill:#FFFFFF;}
</style>
<defs>
</defs>
<g>
	<path class="st0" d="M256,0c141.385,0,256,114.615,256,256S397.385,512,256,512S0,397.385,0,256S114.615,0,256,0L256,0z"/>
	<path class="st1" d="M387.188,399.369H124.814V354.9c0-31.607,20.227-59.669,50.212-69.664l48.178-16.06h65.593l48.178,16.06
		c29.986,9.995,50.213,38.057,50.213,69.664V399.369L387.188,399.369z"/>
	<path class="st2" d="M387.188,354.9c0-31.607-20.225-59.669-50.213-69.664l-48.178-16.06h-32.795v130.193h131.186V354.9
		L387.188,354.9z"/>
	<polygon class="st3" points="288.797,269.176 256,301.971 223.204,269.176 223.204,236.378 288.797,236.378 288.797,269.176 	"/>
	<path class="st4" d="M190.407,170.786c0-36.227,29.367-65.593,65.593-65.593s65.593,29.366,65.593,65.593
		c0,36.226-29.367,98.39-65.593,98.39S190.407,207.012,190.407,170.786L190.407,170.786z"/>
	<path class="st5" d="M321.595,170.786c0-36.227-29.367-65.593-65.593-65.593c-36.226,0-65.593,29.366-65.593,65.593
		c0,14.456,4.687,33.037,12.61,50.155c-1.856-9.854-1.36-19.928-0.386-27.529c41.634-3.267,81.811-22.745,81.811-22.745
		s5.086,9.347,24.159,17.661c1.352,7.759,2.686,20.377,0.366,32.647C316.9,203.848,321.595,185.251,321.595,170.786L321.595,170.786
		z"/>
	<polygon class="st6" points="242.209,398.222 251.402,312.889 260.598,312.889 269.791,398.222 242.209,398.222 	"/>
	<path class="st7" d="M256,398.222l-47.8-124.045l-33.174,11.059c-29.985,9.995-50.212,38.057-50.212,69.664v44.469h131.188v-1.15
		L256,398.222L256,398.222z"/>
	<path class="st7" d="M387.188,354.9c0-31.607-20.225-59.669-50.213-69.664L303.8,274.177L256,398.219v1.15h131.186V354.9H387.188
		L387.188,354.9z"/>
	<polygon class="st8" points="303.8,274.177 312.889,312.889 295.65,321.508 312.889,341.333 256,398.222 303.8,274.177 	"/>
	<polygon class="st8" points="208.2,274.177 199.111,312.889 216.35,321.508 199.111,341.333 256,398.222 208.2,274.177 	"/>
	<polygon class="st9" points="274.101,302.114 262.034,330.559 249.966,330.559 237.899,302.114 274.101,302.114 	"/>
	<polygon class="st10" points="284.444,312.889 303.8,274.177 288.797,269.176 256,301.971 284.444,312.889 	"/>
	<polygon class="st10" points="227.556,312.889 208.2,274.177 223.203,269.176 256,301.971 227.556,312.889 	"/>
</g>
</svg>